<mxfile host="www.draw.io" modified="2020-01-30T08:27:53.867Z" agent="Mozilla/5.0 (Windows NT 10.0; Win64; x64; rv:72.0) Gecko/20100101 Firefox/72.0" etag="a6TaC-8NwzG-RNOMnbhe" version="12.6.2" type="github">
  <diagram id="mRv1oApL9GqqJDqWDolJ" name="Page-1">
    <mxGraphModel dx="1038" dy="609" grid="1" gridSize="10" guides="1" tooltips="1" connect="1" arrows="1" fold="1" page="1" pageScale="1" pageWidth="3300" pageHeight="4681" math="0" shadow="0">
      <root>
        <mxCell id="0"/>
        <mxCell id="1" parent="0"/>
        <mxCell id="lNPg05Z-FwE8nWvxI-h8-1" value="" style="rounded=0;whiteSpace=wrap;html=1;" parent="1" vertex="1">
          <mxGeometry x="30" y="30" width="290" height="330" as="geometry"/>
        </mxCell>
        <mxCell id="lNPg05Z-FwE8nWvxI-h8-2" value="&lt;font style=&quot;font-size: 20px&quot;&gt;Choose Ticket&lt;/font&gt;" style="text;html=1;resizable=0;autosize=1;align=center;verticalAlign=middle;points=[];fillColor=none;strokeColor=none;rounded=0;" parent="1" vertex="1">
          <mxGeometry x="105" y="50" width="140" height="20" as="geometry"/>
        </mxCell>
        <mxCell id="lNPg05Z-FwE8nWvxI-h8-3" value="From : " style="text;html=1;resizable=0;autosize=1;align=center;verticalAlign=middle;points=[];fillColor=none;strokeColor=none;rounded=0;" parent="1" vertex="1">
          <mxGeometry x="55" y="90" width="50" height="20" as="geometry"/>
        </mxCell>
        <mxCell id="lNPg05Z-FwE8nWvxI-h8-4" value="To : " style="text;html=1;resizable=0;autosize=1;align=center;verticalAlign=middle;points=[];fillColor=none;strokeColor=none;rounded=0;" parent="1" vertex="1">
          <mxGeometry x="55" y="135" width="30" height="20" as="geometry"/>
        </mxCell>
        <mxCell id="lNPg05Z-FwE8nWvxI-h8-5" value="" style="rounded=0;whiteSpace=wrap;html=1;fillColor=#fff2cc;strokeColor=#d6b656;" parent="1" vertex="1">
          <mxGeometry x="120" y="85" width="170" height="30" as="geometry"/>
        </mxCell>
        <mxCell id="lNPg05Z-FwE8nWvxI-h8-6" value="" style="rounded=0;whiteSpace=wrap;html=1;fillColor=#fff2cc;strokeColor=#d6b656;" parent="1" vertex="1">
          <mxGeometry x="120" y="130" width="170" height="30" as="geometry"/>
        </mxCell>
        <mxCell id="lNPg05Z-FwE8nWvxI-h8-7" value="" style="endArrow=none;html=1;" parent="1" edge="1">
          <mxGeometry width="50" height="50" relative="1" as="geometry">
            <mxPoint x="60" y="180" as="sourcePoint"/>
            <mxPoint x="290" y="180" as="targetPoint"/>
          </mxGeometry>
        </mxCell>
        <mxCell id="lNPg05Z-FwE8nWvxI-h8-8" value="" style="dashed=0;labelPosition=right;align=left;shape=mxgraph.gmdl.checkbox;strokeColor=none;fillColor=#009587;strokeWidth=2;aspect=fixed;" parent="1" vertex="1">
          <mxGeometry x="55" y="210" width="16" height="16" as="geometry"/>
        </mxCell>
        <mxCell id="lNPg05Z-FwE8nWvxI-h8-9" value="" style="dashed=0;labelPosition=right;align=left;shape=mxgraph.gmdl.checkbox;strokeColor=none;fillColor=#009587;strokeWidth=2;aspect=fixed;" parent="1" vertex="1">
          <mxGeometry x="55" y="240" width="16" height="16" as="geometry"/>
        </mxCell>
        <mxCell id="lNPg05Z-FwE8nWvxI-h8-10" value="" style="dashed=0;labelPosition=right;align=left;shape=mxgraph.gmdl.checkbox;strokeColor=none;fillColor=#009587;strokeWidth=2;aspect=fixed;" parent="1" vertex="1">
          <mxGeometry x="55" y="270" width="16" height="16" as="geometry"/>
        </mxCell>
        <mxCell id="lNPg05Z-FwE8nWvxI-h8-11" value="Volcano" style="text;html=1;resizable=0;autosize=1;align=center;verticalAlign=middle;points=[];fillColor=none;strokeColor=none;rounded=0;" parent="1" vertex="1">
          <mxGeometry x="71" y="208" width="60" height="20" as="geometry"/>
        </mxCell>
        <mxCell id="lNPg05Z-FwE8nWvxI-h8-12" value="Stella" style="text;html=1;resizable=0;autosize=1;align=center;verticalAlign=middle;points=[];fillColor=none;strokeColor=none;rounded=0;" parent="1" vertex="1">
          <mxGeometry x="81" y="238" width="40" height="20" as="geometry"/>
        </mxCell>
        <mxCell id="lNPg05Z-FwE8nWvxI-h8-13" value="Horizon" style="text;html=1;resizable=0;autosize=1;align=center;verticalAlign=middle;points=[];fillColor=none;strokeColor=none;rounded=0;" parent="1" vertex="1">
          <mxGeometry x="71" y="268" width="60" height="20" as="geometry"/>
        </mxCell>
        <mxCell id="lNPg05Z-FwE8nWvxI-h8-21" value="" style="shape=rect;strokeColor=#6c8ebf;fillColor=#dae8fc;shadow=0;" parent="1" vertex="1">
          <mxGeometry x="130" y="200" width="180" height="120" as="geometry"/>
        </mxCell>
        <mxCell id="lNPg05Z-FwE8nWvxI-h8-22" value="Volcano Kigali-&gt;Butare 10:30" style="shape=rect;strokeColor=none;fontSize=10;fontColor=#000000;resizeWidth=1;align=left;spacingLeft=25;spacingTop=2;" parent="lNPg05Z-FwE8nWvxI-h8-21" vertex="1">
          <mxGeometry width="180" height="20" relative="1" as="geometry"/>
        </mxCell>
        <mxCell id="lNPg05Z-FwE8nWvxI-h8-23" value="" style="shape=rect;rounded=1;rSize=3;strokeColor=none;fillColor=#FF9501;" parent="lNPg05Z-FwE8nWvxI-h8-22" vertex="1">
          <mxGeometry y="0.5" width="15" height="15" relative="1" as="geometry">
            <mxPoint x="5" y="-7.5" as="offset"/>
          </mxGeometry>
        </mxCell>
        <mxCell id="lNPg05Z-FwE8nWvxI-h8-24" value="" style="shape=mxgraph.ios7.misc.right;strokeColor=#666666;" parent="lNPg05Z-FwE8nWvxI-h8-22" vertex="1">
          <mxGeometry x="1" y="0.5" width="5" height="10" relative="1" as="geometry">
            <mxPoint x="-15" y="-5" as="offset"/>
          </mxGeometry>
        </mxCell>
        <mxCell id="lNPg05Z-FwE8nWvxI-h8-25" value="Stella Kigali-&gt; Butare 13:00" style="shape=rect;strokeColor=none;fontSize=10;fontColor=#000000;resizeWidth=1;align=left;spacingLeft=25;spacingTop=2;" parent="lNPg05Z-FwE8nWvxI-h8-21" vertex="1">
          <mxGeometry width="180" height="20" relative="1" as="geometry">
            <mxPoint y="20" as="offset"/>
          </mxGeometry>
        </mxCell>
        <mxCell id="lNPg05Z-FwE8nWvxI-h8-26" value="" style="shape=rect;rounded=1;rSize=3;strokeColor=none;fillColor=#FF3B2F;" parent="lNPg05Z-FwE8nWvxI-h8-25" vertex="1">
          <mxGeometry y="0.5" width="15" height="15" relative="1" as="geometry">
            <mxPoint x="5" y="-7.5" as="offset"/>
          </mxGeometry>
        </mxCell>
        <mxCell id="lNPg05Z-FwE8nWvxI-h8-27" value="" style="shape=mxgraph.ios7.misc.right;strokeColor=#666666;" parent="lNPg05Z-FwE8nWvxI-h8-25" vertex="1">
          <mxGeometry x="1" y="0.5" width="5" height="10" relative="1" as="geometry">
            <mxPoint x="-15" y="-5" as="offset"/>
          </mxGeometry>
        </mxCell>
        <mxCell id="lNPg05Z-FwE8nWvxI-h8-28" value="..." style="shape=rect;strokeColor=none;fontSize=10;fontColor=#000000;resizeWidth=1;align=left;spacingLeft=25;spacingTop=2;" parent="lNPg05Z-FwE8nWvxI-h8-21" vertex="1">
          <mxGeometry width="180" height="20" relative="1" as="geometry">
            <mxPoint y="40" as="offset"/>
          </mxGeometry>
        </mxCell>
        <mxCell id="lNPg05Z-FwE8nWvxI-h8-29" value="" style="shape=rect;rounded=1;rSize=3;strokeColor=none;fillColor=#4CDA64;" parent="lNPg05Z-FwE8nWvxI-h8-28" vertex="1">
          <mxGeometry y="0.5" width="15" height="15" relative="1" as="geometry">
            <mxPoint x="5" y="-7.5" as="offset"/>
          </mxGeometry>
        </mxCell>
        <mxCell id="lNPg05Z-FwE8nWvxI-h8-30" value="" style="shape=mxgraph.ios7.misc.right;strokeColor=#666666;" parent="lNPg05Z-FwE8nWvxI-h8-28" vertex="1">
          <mxGeometry x="1" y="0.5" width="5" height="10" relative="1" as="geometry">
            <mxPoint x="-15" y="-5" as="offset"/>
          </mxGeometry>
        </mxCell>
        <mxCell id="lNPg05Z-FwE8nWvxI-h8-31" value="..." style="shape=rect;strokeColor=none;fontSize=10;fontColor=#000000;resizeWidth=1;align=left;spacingLeft=25;spacingTop=2;" parent="lNPg05Z-FwE8nWvxI-h8-21" vertex="1">
          <mxGeometry width="180" height="20" relative="1" as="geometry">
            <mxPoint y="60" as="offset"/>
          </mxGeometry>
        </mxCell>
        <mxCell id="lNPg05Z-FwE8nWvxI-h8-32" value="" style="shape=rect;rounded=1;rSize=3;strokeColor=none;fillColor=#007AFF;" parent="lNPg05Z-FwE8nWvxI-h8-31" vertex="1">
          <mxGeometry y="0.5" width="15" height="15" relative="1" as="geometry">
            <mxPoint x="5" y="-7.5" as="offset"/>
          </mxGeometry>
        </mxCell>
        <mxCell id="lNPg05Z-FwE8nWvxI-h8-33" value="" style="shape=mxgraph.ios7.misc.right;strokeColor=#666666;" parent="lNPg05Z-FwE8nWvxI-h8-31" vertex="1">
          <mxGeometry x="1" y="0.5" width="5" height="10" relative="1" as="geometry">
            <mxPoint x="-15" y="-5" as="offset"/>
          </mxGeometry>
        </mxCell>
        <mxCell id="lNPg05Z-FwE8nWvxI-h8-34" value="..." style="shape=rect;strokeColor=none;fontSize=10;fontColor=#000000;resizeWidth=1;align=left;spacingLeft=25;spacingTop=2;" parent="lNPg05Z-FwE8nWvxI-h8-21" vertex="1">
          <mxGeometry width="180" height="20" relative="1" as="geometry">
            <mxPoint y="80" as="offset"/>
          </mxGeometry>
        </mxCell>
        <mxCell id="lNPg05Z-FwE8nWvxI-h8-35" value="" style="shape=rect;rounded=1;rSize=3;strokeColor=none;fillColor=#5855D6;" parent="lNPg05Z-FwE8nWvxI-h8-34" vertex="1">
          <mxGeometry y="0.5" width="15" height="15" relative="1" as="geometry">
            <mxPoint x="5" y="-7.5" as="offset"/>
          </mxGeometry>
        </mxCell>
        <mxCell id="lNPg05Z-FwE8nWvxI-h8-36" value="" style="shape=mxgraph.ios7.misc.right;strokeColor=#666666;" parent="lNPg05Z-FwE8nWvxI-h8-34" vertex="1">
          <mxGeometry x="1" y="0.5" width="5" height="10" relative="1" as="geometry">
            <mxPoint x="-15" y="-5" as="offset"/>
          </mxGeometry>
        </mxCell>
        <mxCell id="lNPg05Z-FwE8nWvxI-h8-37" value="..." style="shape=rect;strokeColor=none;fontSize=10;fontColor=#000000;resizeWidth=1;align=left;spacingLeft=25;spacingTop=2;" parent="lNPg05Z-FwE8nWvxI-h8-21" vertex="1">
          <mxGeometry width="180" height="20" relative="1" as="geometry">
            <mxPoint y="100" as="offset"/>
          </mxGeometry>
        </mxCell>
        <mxCell id="lNPg05Z-FwE8nWvxI-h8-38" value="" style="shape=rect;rounded=1;rSize=3;strokeColor=none;fillColor=#8F8E94;" parent="lNPg05Z-FwE8nWvxI-h8-37" vertex="1">
          <mxGeometry y="0.5" width="15" height="15" relative="1" as="geometry">
            <mxPoint x="5" y="-7.5" as="offset"/>
          </mxGeometry>
        </mxCell>
        <mxCell id="lNPg05Z-FwE8nWvxI-h8-39" value="" style="shape=mxgraph.ios7.misc.right;strokeColor=#666666;" parent="lNPg05Z-FwE8nWvxI-h8-37" vertex="1">
          <mxGeometry x="1" y="0.5" width="5" height="10" relative="1" as="geometry">
            <mxPoint x="-15" y="-5" as="offset"/>
          </mxGeometry>
        </mxCell>
        <mxCell id="z6ciGfWp9YnBP6KKBopy-1" value="" style="rounded=0;whiteSpace=wrap;html=1;" vertex="1" parent="1">
          <mxGeometry x="430" y="30" width="290" height="330" as="geometry"/>
        </mxCell>
        <mxCell id="z6ciGfWp9YnBP6KKBopy-2" value="&lt;font style=&quot;font-size: 20px&quot;&gt;Ticket Details&lt;/font&gt;" style="text;html=1;resizable=0;autosize=1;align=center;verticalAlign=middle;points=[];fillColor=none;strokeColor=none;rounded=0;strokeWidth=8;" vertex="1" parent="1">
          <mxGeometry x="510" y="50" width="130" height="20" as="geometry"/>
        </mxCell>
        <mxCell id="z6ciGfWp9YnBP6KKBopy-7" value="" style="endArrow=none;html=1;" edge="1" parent="1">
          <mxGeometry width="50" height="50" relative="1" as="geometry">
            <mxPoint x="460" y="231" as="sourcePoint"/>
            <mxPoint x="690" y="231" as="targetPoint"/>
          </mxGeometry>
        </mxCell>
        <mxCell id="z6ciGfWp9YnBP6KKBopy-33" value="Volcano RACXXXX" style="text;html=1;resizable=0;autosize=1;align=center;verticalAlign=middle;points=[];fillColor=none;strokeColor=none;rounded=0;" vertex="1" parent="1">
          <mxGeometry x="579.5" y="85" width="110" height="20" as="geometry"/>
        </mxCell>
        <mxCell id="z6ciGfWp9YnBP6KKBopy-34" value="Vehicle(Company) :" style="text;html=1;resizable=0;autosize=1;align=center;verticalAlign=middle;points=[];fillColor=none;strokeColor=none;rounded=0;" vertex="1" parent="1">
          <mxGeometry x="460.5" y="85" width="120" height="20" as="geometry"/>
        </mxCell>
        <mxCell id="z6ciGfWp9YnBP6KKBopy-35" value="Kigali -&amp;gt; Butare" style="text;html=1;resizable=0;autosize=1;align=center;verticalAlign=middle;points=[];fillColor=none;strokeColor=none;rounded=0;" vertex="1" parent="1">
          <mxGeometry x="579.5" y="110" width="100" height="20" as="geometry"/>
        </mxCell>
        <mxCell id="z6ciGfWp9YnBP6KKBopy-36" value="Origin -&amp;gt; Dest" style="text;html=1;resizable=0;autosize=1;align=center;verticalAlign=middle;points=[];fillColor=none;strokeColor=none;rounded=0;" vertex="1" parent="1">
          <mxGeometry x="460.5" y="110" width="90" height="20" as="geometry"/>
        </mxCell>
        <mxCell id="z6ciGfWp9YnBP6KKBopy-37" value="&lt;font style=&quot;font-size: 16px&quot;&gt;Rwf 2500&lt;/font&gt;" style="text;html=1;resizable=0;autosize=1;align=center;verticalAlign=middle;points=[];fillColor=none;strokeColor=none;rounded=0;" vertex="1" parent="1">
          <mxGeometry x="580.5" y="160" width="80" height="20" as="geometry"/>
        </mxCell>
        <mxCell id="z6ciGfWp9YnBP6KKBopy-38" value="Price" style="text;html=1;resizable=0;autosize=1;align=center;verticalAlign=middle;points=[];fillColor=none;strokeColor=none;rounded=0;" vertex="1" parent="1">
          <mxGeometry x="465" y="160" width="40" height="20" as="geometry"/>
        </mxCell>
        <mxCell id="z6ciGfWp9YnBP6KKBopy-40" value="Purchase" style="rounded=1;fillColor=#0057D8;align=center;strokeColor=none;html=1;fontColor=#ffffff;fontSize=12" vertex="1" parent="1">
          <mxGeometry x="574.5" y="256" width="86" height="33" as="geometry"/>
        </mxCell>
        <mxCell id="z6ciGfWp9YnBP6KKBopy-42" value="Go Back" style="rounded=1;fillColor=#666666;align=center;strokeColor=none;html=1;fontColor=#ffffff;fontSize=12" vertex="1" parent="1">
          <mxGeometry x="477.5" y="256" width="86" height="33" as="geometry"/>
        </mxCell>
        <mxCell id="z6ciGfWp9YnBP6KKBopy-43" value="" style="rounded=0;whiteSpace=wrap;html=1;" vertex="1" parent="1">
          <mxGeometry x="830" y="30" width="290" height="330" as="geometry"/>
        </mxCell>
        <mxCell id="z6ciGfWp9YnBP6KKBopy-44" value="&lt;font style=&quot;font-size: 20px&quot;&gt;Passenger Details&lt;/font&gt;" style="text;html=1;resizable=0;autosize=1;align=center;verticalAlign=middle;points=[];fillColor=none;strokeColor=none;rounded=0;strokeWidth=8;" vertex="1" parent="1">
          <mxGeometry x="885" y="50" width="180" height="20" as="geometry"/>
        </mxCell>
        <mxCell id="z6ciGfWp9YnBP6KKBopy-45" value="" style="endArrow=none;html=1;" edge="1" parent="1">
          <mxGeometry width="50" height="50" relative="1" as="geometry">
            <mxPoint x="862" y="212" as="sourcePoint"/>
            <mxPoint x="1092" y="212" as="targetPoint"/>
          </mxGeometry>
        </mxCell>
        <mxCell id="z6ciGfWp9YnBP6KKBopy-46" value="Volcano RACXXXX" style="text;html=1;resizable=0;autosize=1;align=center;verticalAlign=middle;points=[];fillColor=none;strokeColor=none;rounded=0;" vertex="1" parent="1">
          <mxGeometry x="979.5" y="85" width="110" height="20" as="geometry"/>
        </mxCell>
        <mxCell id="z6ciGfWp9YnBP6KKBopy-47" value="Vehicle(Company) :" style="text;html=1;resizable=0;autosize=1;align=center;verticalAlign=middle;points=[];fillColor=none;strokeColor=none;rounded=0;" vertex="1" parent="1">
          <mxGeometry x="860.5" y="85" width="120" height="20" as="geometry"/>
        </mxCell>
        <mxCell id="z6ciGfWp9YnBP6KKBopy-48" value="Kigali -&amp;gt; Butare" style="text;html=1;resizable=0;autosize=1;align=center;verticalAlign=middle;points=[];fillColor=none;strokeColor=none;rounded=0;" vertex="1" parent="1">
          <mxGeometry x="979.5" y="110" width="100" height="20" as="geometry"/>
        </mxCell>
        <mxCell id="z6ciGfWp9YnBP6KKBopy-49" value="Origin -&amp;gt; Dest" style="text;html=1;resizable=0;autosize=1;align=center;verticalAlign=middle;points=[];fillColor=none;strokeColor=none;rounded=0;" vertex="1" parent="1">
          <mxGeometry x="860.5" y="110" width="90" height="20" as="geometry"/>
        </mxCell>
        <mxCell id="z6ciGfWp9YnBP6KKBopy-50" value="&lt;font style=&quot;font-size: 16px&quot;&gt;Rwf 2500&lt;/font&gt;" style="text;html=1;resizable=0;autosize=1;align=center;verticalAlign=middle;points=[];fillColor=none;strokeColor=none;rounded=0;" vertex="1" parent="1">
          <mxGeometry x="982.5" y="160" width="80" height="20" as="geometry"/>
        </mxCell>
        <mxCell id="z6ciGfWp9YnBP6KKBopy-51" value="Price" style="text;html=1;resizable=0;autosize=1;align=center;verticalAlign=middle;points=[];fillColor=none;strokeColor=none;rounded=0;" vertex="1" parent="1">
          <mxGeometry x="864" y="160" width="40" height="20" as="geometry"/>
        </mxCell>
        <mxCell id="z6ciGfWp9YnBP6KKBopy-52" value="Pay" style="rounded=1;fillColor=#0057D8;align=center;strokeColor=none;html=1;fontColor=#ffffff;fontSize=12" vertex="1" parent="1">
          <mxGeometry x="979.5" y="310" width="86" height="33" as="geometry"/>
        </mxCell>
        <mxCell id="z6ciGfWp9YnBP6KKBopy-53" value="Cancel" style="rounded=1;fillColor=#666666;align=center;strokeColor=none;html=1;fontColor=#ffffff;fontSize=12" vertex="1" parent="1">
          <mxGeometry x="885" y="310" width="86" height="33" as="geometry"/>
        </mxCell>
        <mxCell id="z6ciGfWp9YnBP6KKBopy-54" value="&lt;font style=&quot;font-size: 12px&quot;&gt;Feb 27,2020, 13:30&lt;/font&gt;" style="text;html=1;resizable=0;autosize=1;align=center;verticalAlign=middle;points=[];fillColor=none;strokeColor=none;rounded=0;" vertex="1" parent="1">
          <mxGeometry x="579.5" y="135" width="120" height="20" as="geometry"/>
        </mxCell>
        <mxCell id="z6ciGfWp9YnBP6KKBopy-55" value="Time" style="text;html=1;resizable=0;autosize=1;align=center;verticalAlign=middle;points=[];fillColor=none;strokeColor=none;rounded=0;" vertex="1" parent="1">
          <mxGeometry x="462" y="135" width="40" height="20" as="geometry"/>
        </mxCell>
        <mxCell id="z6ciGfWp9YnBP6KKBopy-56" value="&lt;font style=&quot;font-size: 12px&quot;&gt;Feb 27,2020, 13:30&lt;/font&gt;" style="text;html=1;resizable=0;autosize=1;align=center;verticalAlign=middle;points=[];fillColor=none;strokeColor=none;rounded=0;" vertex="1" parent="1">
          <mxGeometry x="978" y="135" width="120" height="20" as="geometry"/>
        </mxCell>
        <mxCell id="z6ciGfWp9YnBP6KKBopy-57" value="Time" style="text;html=1;resizable=0;autosize=1;align=center;verticalAlign=middle;points=[];fillColor=none;strokeColor=none;rounded=0;" vertex="1" parent="1">
          <mxGeometry x="860.5" y="135" width="40" height="20" as="geometry"/>
        </mxCell>
        <mxCell id="z6ciGfWp9YnBP6KKBopy-58" value="Names" style="text;html=1;resizable=0;autosize=1;align=center;verticalAlign=middle;points=[];fillColor=none;strokeColor=none;rounded=0;" vertex="1" parent="1">
          <mxGeometry x="854.5" y="233" width="50" height="20" as="geometry"/>
        </mxCell>
        <mxCell id="z6ciGfWp9YnBP6KKBopy-59" value="Phone" style="text;html=1;resizable=0;autosize=1;align=center;verticalAlign=middle;points=[];fillColor=none;strokeColor=none;rounded=0;" vertex="1" parent="1">
          <mxGeometry x="854.5" y="268" width="50" height="20" as="geometry"/>
        </mxCell>
        <mxCell id="z6ciGfWp9YnBP6KKBopy-60" value="" style="rounded=0;whiteSpace=wrap;html=1;fillColor=#fff2cc;strokeColor=#d6b656;" vertex="1" parent="1">
          <mxGeometry x="919.5" y="228" width="170" height="30" as="geometry"/>
        </mxCell>
        <mxCell id="z6ciGfWp9YnBP6KKBopy-61" value="" style="rounded=0;whiteSpace=wrap;html=1;fillColor=#fff2cc;strokeColor=#d6b656;" vertex="1" parent="1">
          <mxGeometry x="918.5" y="263" width="170" height="30" as="geometry"/>
        </mxCell>
        <mxCell id="z6ciGfWp9YnBP6KKBopy-65" value="&lt;font style=&quot;font-size: 33px&quot;&gt;*182#&lt;/font&gt;" style="rounded=0;whiteSpace=wrap;html=1;strokeWidth=1;fillColor=#FFFFFF;strokeColor=#000000;" vertex="1" parent="1">
          <mxGeometry x="55" y="520" width="160" height="180" as="geometry"/>
        </mxCell>
        <mxCell id="z6ciGfWp9YnBP6KKBopy-66" value="Bus Ticket" style="rounded=0;whiteSpace=wrap;html=1;strokeColor=#000000;strokeWidth=1;fillColor=#FFFFFF;" vertex="1" parent="1">
          <mxGeometry x="290" y="570" width="120" height="60" as="geometry"/>
        </mxCell>
        <mxCell id="z6ciGfWp9YnBP6KKBopy-67" value="" style="rounded=0;whiteSpace=wrap;html=1;strokeColor=#000000;strokeWidth=1;fillColor=#FFFFFF;" vertex="1" parent="1">
          <mxGeometry x="459.5" y="520" width="190.5" height="250" as="geometry"/>
        </mxCell>
        <mxCell id="z6ciGfWp9YnBP6KKBopy-70" value="From" style="swimlane;fontStyle=0;childLayout=stackLayout;horizontal=1;startSize=26;fillColor=none;horizontalStack=0;resizeParent=1;resizeParentMax=0;resizeLast=0;collapsible=1;marginBottom=0;strokeColor=#000000;strokeWidth=1;" vertex="1" parent="1">
          <mxGeometry x="490" y="540" width="140" height="104" as="geometry">
            <mxRectangle x="720" y="540" width="60" height="26" as="alternateBounds"/>
          </mxGeometry>
        </mxCell>
        <mxCell id="z6ciGfWp9YnBP6KKBopy-71" value="0.Kigali" style="text;strokeColor=none;fillColor=none;align=left;verticalAlign=top;spacingLeft=4;spacingRight=4;overflow=hidden;rotatable=0;points=[[0,0.5],[1,0.5]];portConstraint=eastwest;" vertex="1" parent="z6ciGfWp9YnBP6KKBopy-70">
          <mxGeometry y="26" width="140" height="26" as="geometry"/>
        </mxCell>
        <mxCell id="z6ciGfWp9YnBP6KKBopy-72" value="1.Huye&#xa;" style="text;strokeColor=none;fillColor=none;align=left;verticalAlign=top;spacingLeft=4;spacingRight=4;overflow=hidden;rotatable=0;points=[[0,0.5],[1,0.5]];portConstraint=eastwest;" vertex="1" parent="z6ciGfWp9YnBP6KKBopy-70">
          <mxGeometry y="52" width="140" height="26" as="geometry"/>
        </mxCell>
        <mxCell id="z6ciGfWp9YnBP6KKBopy-73" value="2.Musanze" style="text;strokeColor=none;fillColor=none;align=left;verticalAlign=top;spacingLeft=4;spacingRight=4;overflow=hidden;rotatable=0;points=[[0,0.5],[1,0.5]];portConstraint=eastwest;" vertex="1" parent="z6ciGfWp9YnBP6KKBopy-70">
          <mxGeometry y="78" width="140" height="26" as="geometry"/>
        </mxCell>
        <mxCell id="z6ciGfWp9YnBP6KKBopy-75" value="" style="rounded=0;whiteSpace=wrap;html=1;fillColor=#fff2cc;strokeColor=#d6b656;" vertex="1" parent="1">
          <mxGeometry x="497.5" y="670" width="114.5" height="30" as="geometry"/>
        </mxCell>
        <mxCell id="z6ciGfWp9YnBP6KKBopy-79" value="OK" style="rounded=1;fillColor=#0057D8;align=center;strokeColor=none;html=1;fontColor=#ffffff;fontSize=12" vertex="1" parent="1">
          <mxGeometry x="580" y="720" width="56.5" height="33" as="geometry"/>
        </mxCell>
        <mxCell id="z6ciGfWp9YnBP6KKBopy-80" value="Cancel" style="rounded=1;fillColor=#666666;align=center;strokeColor=none;html=1;fontColor=#ffffff;fontSize=12" vertex="1" parent="1">
          <mxGeometry x="480" y="720" width="50" height="33" as="geometry"/>
        </mxCell>
        <mxCell id="z6ciGfWp9YnBP6KKBopy-81" value="" style="rounded=0;whiteSpace=wrap;html=1;strokeColor=#000000;strokeWidth=1;fillColor=#FFFFFF;" vertex="1" parent="1">
          <mxGeometry x="710" y="520" width="190.5" height="250" as="geometry"/>
        </mxCell>
        <mxCell id="z6ciGfWp9YnBP6KKBopy-82" value="To" style="swimlane;fontStyle=0;childLayout=stackLayout;horizontal=1;startSize=26;fillColor=none;horizontalStack=0;resizeParent=1;resizeParentMax=0;resizeLast=0;collapsible=1;marginBottom=0;strokeColor=#000000;strokeWidth=1;" vertex="1" parent="1">
          <mxGeometry x="740.5" y="540" width="140" height="104" as="geometry">
            <mxRectangle x="720" y="540" width="60" height="26" as="alternateBounds"/>
          </mxGeometry>
        </mxCell>
        <mxCell id="z6ciGfWp9YnBP6KKBopy-83" value="0.Kigali" style="text;strokeColor=none;fillColor=none;align=left;verticalAlign=top;spacingLeft=4;spacingRight=4;overflow=hidden;rotatable=0;points=[[0,0.5],[1,0.5]];portConstraint=eastwest;" vertex="1" parent="z6ciGfWp9YnBP6KKBopy-82">
          <mxGeometry y="26" width="140" height="26" as="geometry"/>
        </mxCell>
        <mxCell id="z6ciGfWp9YnBP6KKBopy-84" value="1.Huye&#xa;" style="text;strokeColor=none;fillColor=none;align=left;verticalAlign=top;spacingLeft=4;spacingRight=4;overflow=hidden;rotatable=0;points=[[0,0.5],[1,0.5]];portConstraint=eastwest;" vertex="1" parent="z6ciGfWp9YnBP6KKBopy-82">
          <mxGeometry y="52" width="140" height="26" as="geometry"/>
        </mxCell>
        <mxCell id="z6ciGfWp9YnBP6KKBopy-85" value="2.Musanze" style="text;strokeColor=none;fillColor=none;align=left;verticalAlign=top;spacingLeft=4;spacingRight=4;overflow=hidden;rotatable=0;points=[[0,0.5],[1,0.5]];portConstraint=eastwest;" vertex="1" parent="z6ciGfWp9YnBP6KKBopy-82">
          <mxGeometry y="78" width="140" height="26" as="geometry"/>
        </mxCell>
        <mxCell id="z6ciGfWp9YnBP6KKBopy-86" value="" style="rounded=0;whiteSpace=wrap;html=1;fillColor=#fff2cc;strokeColor=#d6b656;" vertex="1" parent="1">
          <mxGeometry x="748" y="670" width="114.5" height="30" as="geometry"/>
        </mxCell>
        <mxCell id="z6ciGfWp9YnBP6KKBopy-87" value="OK" style="rounded=1;fillColor=#0057D8;align=center;strokeColor=none;html=1;fontColor=#ffffff;fontSize=12" vertex="1" parent="1">
          <mxGeometry x="830.5" y="720" width="56.5" height="33" as="geometry"/>
        </mxCell>
        <mxCell id="z6ciGfWp9YnBP6KKBopy-88" value="Cancel" style="rounded=1;fillColor=#666666;align=center;strokeColor=none;html=1;fontColor=#ffffff;fontSize=12" vertex="1" parent="1">
          <mxGeometry x="730.5" y="720" width="50" height="33" as="geometry"/>
        </mxCell>
        <mxCell id="z6ciGfWp9YnBP6KKBopy-89" value="" style="rounded=0;whiteSpace=wrap;html=1;strokeColor=#000000;strokeWidth=1;fillColor=#FFFFFF;" vertex="1" parent="1">
          <mxGeometry x="1010" y="520" width="220" height="250" as="geometry"/>
        </mxCell>
        <mxCell id="z6ciGfWp9YnBP6KKBopy-90" value="Bus Options" style="swimlane;fontStyle=0;childLayout=stackLayout;horizontal=1;startSize=26;fillColor=none;horizontalStack=0;resizeParent=1;resizeParentMax=0;resizeLast=0;collapsible=1;marginBottom=0;strokeColor=#000000;strokeWidth=1;" vertex="1" parent="1">
          <mxGeometry x="1030" y="550" width="180" height="104" as="geometry">
            <mxRectangle x="720" y="540" width="60" height="26" as="alternateBounds"/>
          </mxGeometry>
        </mxCell>
        <mxCell id="z6ciGfWp9YnBP6KKBopy-91" value="0.Volcano Kigali-Huye 13:00" style="text;strokeColor=none;fillColor=none;align=left;verticalAlign=top;spacingLeft=4;spacingRight=4;overflow=hidden;rotatable=0;points=[[0,0.5],[1,0.5]];portConstraint=eastwest;" vertex="1" parent="z6ciGfWp9YnBP6KKBopy-90">
          <mxGeometry y="26" width="180" height="26" as="geometry"/>
        </mxCell>
        <mxCell id="z6ciGfWp9YnBP6KKBopy-92" value="1.Stella Kigali Huye 13:30&#xa;" style="text;strokeColor=none;fillColor=none;align=left;verticalAlign=top;spacingLeft=4;spacingRight=4;overflow=hidden;rotatable=0;points=[[0,0.5],[1,0.5]];portConstraint=eastwest;" vertex="1" parent="z6ciGfWp9YnBP6KKBopy-90">
          <mxGeometry y="52" width="180" height="26" as="geometry"/>
        </mxCell>
        <mxCell id="z6ciGfWp9YnBP6KKBopy-93" value="2.Horizon Kigali Huye 14:00" style="text;strokeColor=none;fillColor=none;align=left;verticalAlign=top;spacingLeft=4;spacingRight=4;overflow=hidden;rotatable=0;points=[[0,0.5],[1,0.5]];portConstraint=eastwest;" vertex="1" parent="z6ciGfWp9YnBP6KKBopy-90">
          <mxGeometry y="78" width="180" height="26" as="geometry"/>
        </mxCell>
        <mxCell id="z6ciGfWp9YnBP6KKBopy-94" value="" style="rounded=0;whiteSpace=wrap;html=1;fillColor=#fff2cc;strokeColor=#d6b656;" vertex="1" parent="1">
          <mxGeometry x="1051.5" y="670" width="114.5" height="30" as="geometry"/>
        </mxCell>
        <mxCell id="z6ciGfWp9YnBP6KKBopy-95" value="OK" style="rounded=1;fillColor=#0057D8;align=center;strokeColor=none;html=1;fontColor=#ffffff;fontSize=12" vertex="1" parent="1">
          <mxGeometry x="1130" y="720" width="56.5" height="33" as="geometry"/>
        </mxCell>
        <mxCell id="z6ciGfWp9YnBP6KKBopy-96" value="Cancel" style="rounded=1;fillColor=#666666;align=center;strokeColor=none;html=1;fontColor=#ffffff;fontSize=12" vertex="1" parent="1">
          <mxGeometry x="1051.5" y="720" width="50" height="33" as="geometry"/>
        </mxCell>
        <mxCell id="z6ciGfWp9YnBP6KKBopy-97" value="" style="rounded=0;whiteSpace=wrap;html=1;strokeColor=#000000;strokeWidth=1;fillColor=#FFFFFF;" vertex="1" parent="1">
          <mxGeometry x="1310" y="520" width="220" height="250" as="geometry"/>
        </mxCell>
        <mxCell id="z6ciGfWp9YnBP6KKBopy-102" value="" style="rounded=0;whiteSpace=wrap;html=1;fillColor=#fff2cc;strokeColor=#d6b656;" vertex="1" parent="1">
          <mxGeometry x="1362.75" y="600" width="114.5" height="30" as="geometry"/>
        </mxCell>
        <mxCell id="z6ciGfWp9YnBP6KKBopy-103" value="OK" style="rounded=1;fillColor=#0057D8;align=center;strokeColor=none;html=1;fontColor=#ffffff;fontSize=12" vertex="1" parent="1">
          <mxGeometry x="1430" y="654" width="56.5" height="33" as="geometry"/>
        </mxCell>
        <mxCell id="z6ciGfWp9YnBP6KKBopy-104" value="Cancel" style="rounded=1;fillColor=#666666;align=center;strokeColor=none;html=1;fontColor=#ffffff;fontSize=12" vertex="1" parent="1">
          <mxGeometry x="1351.5" y="654" width="50" height="33" as="geometry"/>
        </mxCell>
        <mxCell id="z6ciGfWp9YnBP6KKBopy-105" value="&lt;div&gt;Bus Ticket : Stella Kigali Huye ,&lt;/div&gt;&lt;div&gt; Feb 27, 2020 at 13:30.&lt;/div&gt;&lt;div&gt;Type in your full name: &lt;br&gt;&lt;/div&gt;" style="text;html=1;resizable=0;autosize=1;align=center;verticalAlign=middle;points=[];fillColor=none;strokeColor=none;rounded=0;" vertex="1" parent="1">
          <mxGeometry x="1330" y="540" width="180" height="50" as="geometry"/>
        </mxCell>
        <mxCell id="z6ciGfWp9YnBP6KKBopy-107" value="" style="rounded=0;whiteSpace=wrap;html=1;strokeColor=#000000;strokeWidth=1;fillColor=#FFFFFF;" vertex="1" parent="1">
          <mxGeometry x="1620" y="520" width="220" height="250" as="geometry"/>
        </mxCell>
        <mxCell id="z6ciGfWp9YnBP6KKBopy-108" value="" style="rounded=0;whiteSpace=wrap;html=1;fillColor=#fff2cc;strokeColor=#d6b656;" vertex="1" parent="1">
          <mxGeometry x="1672.75" y="610" width="114.5" height="30" as="geometry"/>
        </mxCell>
        <mxCell id="z6ciGfWp9YnBP6KKBopy-109" value="Pay" style="rounded=1;fillColor=#0057D8;align=center;strokeColor=none;html=1;fontColor=#ffffff;fontSize=12" vertex="1" parent="1">
          <mxGeometry x="1740" y="654" width="56.5" height="33" as="geometry"/>
        </mxCell>
        <mxCell id="z6ciGfWp9YnBP6KKBopy-110" value="Cancel" style="rounded=1;fillColor=#666666;align=center;strokeColor=none;html=1;fontColor=#ffffff;fontSize=12" vertex="1" parent="1">
          <mxGeometry x="1661.5" y="654" width="50" height="33" as="geometry"/>
        </mxCell>
        <mxCell id="z6ciGfWp9YnBP6KKBopy-111" value="&lt;div&gt;Bus Ticket : Stella Kigali Huye ,&lt;/div&gt;&lt;div&gt; Feb 27, 2020 at 13:30.&lt;/div&gt;&lt;div&gt;KAMALI Jean. &lt;br&gt;&lt;/div&gt;&lt;div&gt;Type in your phone number: &lt;br&gt;&lt;/div&gt;" style="text;html=1;resizable=0;autosize=1;align=center;verticalAlign=middle;points=[];fillColor=none;strokeColor=none;rounded=0;" vertex="1" parent="1">
          <mxGeometry x="1640" y="535" width="180" height="60" as="geometry"/>
        </mxCell>
        <mxCell id="z6ciGfWp9YnBP6KKBopy-112" value="" style="rounded=0;whiteSpace=wrap;html=1;strokeColor=#000000;strokeWidth=1;fillColor=#FFFFFF;" vertex="1" parent="1">
          <mxGeometry x="1930" y="520" width="220" height="250" as="geometry"/>
        </mxCell>
        <mxCell id="z6ciGfWp9YnBP6KKBopy-114" value="OK" style="rounded=1;fillColor=#0057D8;align=center;strokeColor=none;html=1;fontColor=#ffffff;fontSize=12" vertex="1" parent="1">
          <mxGeometry x="2050" y="654" width="56.5" height="33" as="geometry"/>
        </mxCell>
        <mxCell id="z6ciGfWp9YnBP6KKBopy-115" value="Cancel" style="rounded=1;fillColor=#666666;align=center;strokeColor=none;html=1;fontColor=#ffffff;fontSize=12" vertex="1" parent="1">
          <mxGeometry x="1971.5" y="654" width="50" height="33" as="geometry"/>
        </mxCell>
        <mxCell id="z6ciGfWp9YnBP6KKBopy-116" value="&lt;div&gt;Bus Ticket : Stella Kigali Huye ,&lt;/div&gt;&lt;div&gt; Feb 27, 2020 at 13:30.&lt;/div&gt;&lt;div&gt;KAMALI Jean. &lt;br&gt;&lt;/div&gt;&lt;div&gt;Bill id : 37383838383.&lt;/div&gt;&lt;div&gt;Please pay within 30 m&lt;br&gt;&lt;/div&gt;" style="text;html=1;resizable=0;autosize=1;align=center;verticalAlign=middle;points=[];fillColor=none;strokeColor=none;rounded=0;" vertex="1" parent="1">
          <mxGeometry x="1950" y="525" width="180" height="80" as="geometry"/>
        </mxCell>
      </root>
    </mxGraphModel>
  </diagram>
</mxfile>
